# AST/ASF file generated using VICON BodyLanguage
# -----------------------------------------------
:version 1.10
:name VICON
:units
  mass 1.0
  length 0.45
  angle deg
:documentation
   .ast/.asf automatically generated from VICON data using
   VICON BodyBuilder and BodyLanguage model FoxedUp or BRILLIANT.MOD
:root
   order TX TY TZ RX RY RZ
   axis XYZ
   position 0 0 0  
   orientation 0 -0 0 
:bonedata
  begin
     id 1 
     name lhipjoint
     direction 0.500677 -0.737119 0.453848 
     length 2.34727 
     axis 0 -0 0  XYZ
  end
  begin
     id 2 
     name lfemur
     direction 0.34202 -0.939693 0  
     length 7.53653  
     axis 0 -0 20  XYZ
    dof rx ry rz
    limits (-160.0 20.0)
           (-70.0 70.0)
           (-60.0 70.0)
  end
  begin
     id 3 
     name ltibia
     direction 0.34202 -0.939693 0   
     length 6.85572   
     axis 0 -0 20   XYZ
    dof rx
    limits (-10.0 170.0)
  end
  begin
     id 4 
     name lfoot
     direction 0.155313 -0.426718 0.890949   
     length 2.18324   
     axis -90 -1.13533e-015 20   XYZ
    dof rx rz
    limits (-45.0 90.0)
           (-70.0 20.0)
  end
  begin
     id 5 
     name ltoes
     direction 1.53474e-011 -4.21647e-011 1   
     length 1.06748   
     axis -90 -1.13533e-015 20   XYZ
    dof rx
    limits (-90.0 20.0)
  end
  begin
     id 6 
     name rhipjoint
     direction -0.632471 -0.659587 0.406111   
     length 2.62319  
     axis 0 -0 0  XYZ 
  end
  begin
     id 7 
     name rfemur
     direction -0.34202 -0.939693 0   
     length 7.21735   
     axis 0 -0 -20   XYZ
    dof rx ry rz
    limits (-160.0 20.0)
           (-70.0 70.0)
           (-70.0 60.0)
  end
  begin
     id 8 
     name rtibia
     direction -0.34202 -0.939693 0   
     length 7.02558   
     axis 0 -0 -20   XYZ
    dof rx
    limits (-10.0 170.0)
 end
 begin
     id 9 
     name rfoot
     direction -0.16057 -0.441164 0.882945   
     length 2.10014  
     axis -90 1.13533e-015 -20   XYZ
    dof rx rz
    limits (-45.0 90.0)
           (-20.0 70.0)
  end
  begin
     id 10 
     name rtoes
     direction -1.53553e-011 -4.2192e-011 1   
     length 1.02554   
     axis -90 1.13533e-015 -20   XYZ
    dof rx
    limits (-90.0 20.0)
  end
  begin
     id 11 
     name lowerback
     direction 0.0401429 0.998861 -0.0258085   
     length 1.80848   
     axis 0 -0 0   XYZ
    dof rx ry rz
    limits (-20.0 45.0)
           (-30.0 30.0)
           (-30.0 30.0)
  end
  begin
     id 12 
     name upperback
     direction -0.0130978 0.999914 -0.000352645   
     length 1.8116   
     axis 0 -0 0   XYZ
    dof rx ry rz
    limits (-20.0 45.0)
           (-30.0 30.0)
           (-30.0 30.0)
  end
  begin
     id 13 
     name thorax
     direction -0.0300198 0.999453 0.0138573   
     length 1.81778   
     axis 0 -0 0   XYZ
    dof rx ry rz
    limits (-20.0 45.0)
           (-30.0 30.0)
           (-30.0 30.0)
  end
  begin
     id 14 
     name lowerneck
     direction -0.0401726 0.999191 -0.00173647   
     length 2.10594   
     axis 0 -0 0   XYZ
    dof rx ry rz
    limits (-20.0 45.0)
           (-30.0 30.0)
           (-30.0 30.0)
  end
  begin
     id 15 
     name upperneck
     direction 0.0119835 0.998501 0.0534085   
     length 2.07325   
     axis 0 -0 0   XYZ
    dof rx ry rz
    limits (-20.0 45.0)
           (-30.0 30.0)
           (-30.0 30.0)
  end
  begin
     id 16
     name head
     direction 0.00628309 0.999826 0.0175921  
     length 2.15096  
     axis 0 -0 0   XYZ
    dof rx ry rz
    limits (-20.0 45.0)
           (-30.0 30.0)
           (-30.0 30.0)
  end
  begin
     id 17 
     name lclavicle
     direction 0.895501 0.429681 -0.115981  
     length 4.18092  
     axis 0 -0 0   XYZ
    dof ry rz
    limits (-20.0 10.0)
           (0.0 20.0)
  end
  begin
     id 18 
     name lhumerus
     direction 1 -4.48961e-011 -3.38433e-028   
     length 5.77237   
     axis 180 -30 -90   XYZ
    dof rx ry rz
    limits (-60.0 90.0)
           (-90.0 90.0)
           (-90.0 90.0)
  end
  begin
     id 19
     name lradius
     direction 1 -4.4901e-011 1.11983e-026   
     length 2.91878   
     axis 180 -30 -90   XYZ
    dof rx
    limits (-10.0 170.0)
  end
  begin
     id 20
     name lwrist
     direction 1 -4.48934e-011 1.88176e-026   
     length 1.45939   
     axis -1.23311e-014 90 90   XYZ
    dof ry
    limits (-180.0 0.0)
 end
  begin
     id 21 
     name lhand
     direction 1 -4.4895e-011 3.76352e-026   
     length 1.06566   
     axis -2.40147e-014 90 90   XYZ
    dof rx rz
    limits (-90.0 90.0)
           (-45.0 45.0)
  end
  begin
     id 22 
     name lfingers
     direction 1 -4.49005e-011 7.52705e-026   
     length 0.859162   
     axis -4.80295e-014 90 90   XYZ
    dof rx
    limits (0.0 90.0)
  end
  begin
     id 23
     name lthumb
     direction 0.707107 -6.34885e-011 0.707107   
     length 1.23359   
     axis -90 45 -9.86935e-015   XYZ
    dof rx rz
    limits (-45.0 45.0)
           (-45.0 45.0)
  end
  begin
     id 24 
     name rclavicle
     direction -0.91006 0.40451 -0.0903492   
     length 4.23293  
     axis 0 -0 0   XYZ 
    dof ry rz
    limits (-10.0 20.0)
           (-20.0 0.0)
  end
  begin
     id 25 
     name rhumerus
     direction -1 -4.4897e-011 1.7415e-027  
     length 5.49854   
     axis 180 30 90   XYZ
    dof rx ry rz
    limits (-90.0 60.0)
           (-90.0 90.0)
           (-90.0 90.0)
  end
  begin
     id 26 
     name rradius
     direction -1 -4.48963e-011 1.21259e-026   
     length 3.1186   
     axis 180 30 90   XYZ
    dof rx
    limits (-10.0 170.0)
  end
  begin
     id 27 
     name rwrist
     direction -1 -4.48967e-011 1.88176e-026   
     length 1.5593   
     axis -1.23311e-014 -90 -90   XYZ
    dof ry
    limits (-180.0 0.0)
  end
  begin
     id 28
     name rhand
     direction -1 -4.4895e-011 3.76352e-026   
     length 0.71207   
     axis -2.40147e-014 -90 -90   XYZ
    dof rx rz
    limits (-90.0 90.0)
           (-45.0 45.0)
  end
  begin
     id 29
     name rfingers
     direction -1 -4.49005e-011 7.52705e-026   
     length 0.574089   
     axis -4.80295e-014 -90 -90   XYZ
    dof rx
    limits (0.0 90.0)
  end
  begin
     id 30
     name rthumb
     direction -0.707107 -6.34982e-011 0.707107   
     length 0.824281   
     axis -90 -45 9.86935e-015   XYZ
    dof rx rz
    limits (-45.0 45.0)
           (-45.0 45.0)
  end
:hierarchy
  begin
    root lhipjoint rhipjoint lowerback
    lhipjoint lfemur
    lfemur ltibia
    ltibia lfoot
    lfoot ltoes
    rhipjoint rfemur
    rfemur rtibia
    rtibia rfoot
    rfoot rtoes
    lowerback upperback
    upperback thorax
    thorax lowerneck lclavicle rclavicle
    lowerneck upperneck
    upperneck head
    lclavicle lhumerus
    lhumerus lradius
    lradius lwrist
    lwrist lhand lthumb
    lhand lfingers
    rclavicle rhumerus
    rhumerus rradius
    rradius rwrist
    rwrist rhand rthumb
    rhand rfingers
  end

#!OML:ASF C:\ViconDB\ViconDB\414\Spring2016\042216\male.ASF
:FULLY-SPECIFIED
:DEGREES
490
root 38.856 17.6574 11.4017 -43.7852 84.09 -43.3825
lowerback -1.07706 -0.609949 8.77536
upperback -0.0978761 -0.904061 0.0819125
thorax 0.368762 -0.433106 -4.84992
lowerneck -3.37406 5.69046 -0.716388
upperneck 6.57632 7.81471 -1.6121
head 2.70787 3.83471 -0.126933
rclavicle 1.03367e-014 -3.97336e-015
rhumerus -24.7638 2.22543 -93.4612
rradius 39.5259
rwrist 20.0107
rhand 11.4792 -18.9112
rfingers 7.12502
rthumb 36.528 -45.0963
lclavicle 1.03367e-014 -3.97336e-015
lhumerus -43.1017 24.858 76.0365
lradius 28.8937
lwrist -23.0002
lhand -4.91101 10.1053
lfingers 7.12502
lthumb 20.8789 39.0018
rfemur 4.20516 -0.46965 28.7281
rtibia 14.5092
rfoot -14.7247 2.25665
rtoes -9.43689
lfemur -24.6553 -1.18193 -15.4255
ltibia 20.1308
lfoot -6.87595 8.41473
ltoes -25.7719
491
root 39.0051 17.6464 11.4077 -43.5396 83.7161 -43.1116
lowerback -1.18487 -0.600943 8.81633
upperback -0.0735759 -0.903579 0.231745
thorax 0.456459 -0.427337 -4.71824
lowerneck -3.41323 5.77609 -0.857821
upperneck 6.6491 7.93839 -1.57063
head 2.73205 3.89337 -0.0835616
rclavicle -2.00415e-015 -2.09097e-014
rhumerus -24.6881 2.64365 -93.5557
rradius 39.5844
rwrist 19.9919
rhand 11.6446 -18.8004
rfingers 7.12502
rthumb 36.6845 -44.9458
lclavicle -2.00415e-015 -2.09097e-014
lhumerus -43.0023 25.1059 76.1033
lradius 28.7804
lwrist -22.7412
lhand -5.43905 10.2423
lfingers 7.12502
lthumb 20.3715 39.1938
rfemur 5.07657 -0.29919 28.9955
rtibia 13.93
rfoot -14.608 2.19815
rtoes -9.33623
lfemur -24.5289 -0.960767 -15.3639
ltibia 20.0537
lfoot -7.87947 8.36665
ltoes -25.5885
492
root 39.1527 17.6416 11.3944 -39.9945 83.7642 -39.5926
lowerback -1.28537 -0.601075 8.64514
upperback -0.11708 -0.911192 0.0695632
thorax 0.466755 -0.433528 -4.79243
lowerneck -3.44862 5.84285 -0.755053
upperneck 6.72851 8.02418 -1.5627
head 2.77007 3.93762 -0.0921466
rclavicle 4.58817e-015 -3.2893e-014
rhumerus -24.7169 3.04404 -93.8276
rradius 39.5909
rwrist 19.697
rhand 11.2917 -18.9946
rfingers 7.12502
rthumb 36.3504 -45.2242
lclavicle 4.58817e-015 -3.2893e-014
lhumerus -43.0935 25.2676 75.9393
lradius 28.911
lwrist -23.0184
lhand -5.3108 10.0072
lfingers 7.12502
lthumb 20.4948 38.9455
rfemur 5.9016 -0.61164 28.4823
rtibia 13.3215
rfoot -14.4699 2.61527
rtoes -9.35525
lfemur -24.3795 -1.42731 -15.8444
ltibia 20.2563
lfoot -8.30685 9.0546
ltoes -25.2064
493
root 39.305 17.6348 11.3951 -37.1983 83.5478 -36.7215
lowerback -1.2222 -0.52472 8.53481
upperback -0.226184 -0.796868 0.00352946
thorax 0.335215 -0.386014 -4.79638
lowerneck -3.33501 5.87075 -0.652063
upperneck 6.87158 8.06188 -1.57918
head 2.80309 3.95861 -0.113996
rclavicle -6.3351e-015 -2.7308e-014
rhumerus -24.8957 2.969 -93.9185
rradius 39.5029
rwrist 19.7896
rhand 11.6507 -18.9767
rfingers 7.12502
rthumb 36.6903 -45.1207
lclavicle -6.3351e-015 -2.7308e-014
lhumerus -43.1216 24.9391 76.1005
lradius 28.8613
lwrist -22.8131
lhand -5.50527 10.1577
lfingers 7.12502
lthumb 20.3079 39.116
rfemur 6.72767 -0.50406 28.2943
rtibia 12.9106
rfoot -14.2891 2.80322
rtoes -9.63836
lfemur -24.0729 -1.59906 -16.095
ltibia 20.5299
lfoot -8.40975 9.63687
ltoes -24.0043
494
root 39.4603 17.6189 11.4026 -38.6291 83.1038 -38.0169
lowerback -1.26308 -0.442758 8.79759
upperback -0.19974 -0.695271 0.0944586
thorax 0.398404 -0.330662 -4.84873
lowerneck -3.38846 5.85278 -0.699731
upperneck 6.99447 8.03176 -1.39986
head 2.8436 3.94668 -0.0463363
rclavicle 2.70875e-014 -3.19795e-014
rhumerus -25.0128 2.80106 -94.0082
rradius 39.3424
rwrist 19.8764
rhand 11.2722 -18.9494
rfingers 7.12502
rthumb 36.332 -45.1837
lclavicle 2.70875e-014 -3.19795e-014
lhumerus -43.1588 25.1373 75.9376
lradius 28.8917
lwrist -23.5064
lhand -5.21959 10.059
lfingers 7.12502
lthumb 20.5824 38.9878
rfemur 7.60279 -0.414847 28.7092
rtibia 12.6168
rfoot -14.2631 2.7551
rtoes -9.71434
lfemur -23.5521 -1.7586 -15.7892
ltibia 20.9169
lfoot -8.60412 10.0339
ltoes -22.6211
495
root 39.6137 17.6035 11.4004 -37.8014 82.9297 -37.0978
lowerback -1.30746 -0.45086 8.73137
upperback -0.206547 -0.709272 0.124972
thorax 0.415402 -0.337129 -4.78026
lowerneck -3.37155 5.88493 -0.794413
upperneck 7.02608 8.07543 -1.31698
head 2.84304 3.96873 -0.00305966
rclavicle 1.42946e-014 -2.16178e-015
rhumerus -25.162 2.8231 -94.0263
rradius 39.0996
rwrist 20.2702
rhand 11.3949 -18.7052
rfingers 7.12502
rthumb 36.4481 -44.9103
lclavicle 1.42946e-014 -2.16178e-015
lhumerus -43.0105 25.2038 76.0783
lradius 28.8134
lwrist -23.2267
lhand -5.39053 9.96472
lfingers 7.12502
lthumb 20.4181 38.9112
rfemur 8.58866 -0.478071 28.6311
rtibia 11.9691
rfoot -13.973 2.87969
rtoes -10.3737
lfemur -23.1169 -2.10857 -15.8952
ltibia 21.4954
lfoot -8.53358 10.3281
ltoes -22.0338
496
root 39.7705 17.5929 11.3985 -36.9217 82.7359 -36.1821
lowerback -1.48544 -0.400926 8.67147
upperback -0.208518 -0.660167 0.104696
thorax 0.52117 -0.308413 -4.76897
lowerneck -3.39537 5.90285 -0.689656
upperneck 7.09049 8.09006 -1.25008
head 2.87089 3.97999 0.00352032
rclavicle 1.10683e-014 -2.23633e-015
rhumerus -25.3445 2.78783 -94.1246
rradius 38.8871
rwrist 20.4299
rhand 11.4665 -18.8162
rfingers 7.12502
rthumb 36.5159 -45.0043
lclavicle 1.10683e-014 -2.23633e-015
lhumerus -42.9577 25.0046 76.2557
lradius 29.0908
lwrist -22.7394
lhand -5.49686 10.1351
lfingers 7.12502
lthumb 20.316 39.0925
rfemur 9.58489 -0.629739 28.5173
rtibia 11.1535
rfoot -13.5286 3.13099
rtoes -10.7259
lfemur -22.7895 -2.30071 -16.0029
ltibia 22.1736
lfoot -9.00032 10.4016
ltoes -19.6111
497
root 39.9309 17.6076 11.3975 -37.4865 82.4342 -36.7926
lowerback -1.7681 -0.400342 8.7529
upperback -0.220831 -0.687809 0.228778
thorax 0.66376 -0.315494 -4.68863
lowerneck -3.36112 5.95011 -0.639909
upperneck 7.07781 8.15934 -1.36859
head 2.86858 4.0124 -0.0410197
rclavicle -2.45654e-014 -2.48729e-014
rhumerus -25.5548 2.62435 -94.1246
rradius 38.5914
rwrist 20.7052
rhand 11.4596 -18.7986
rfingers 7.12502
rthumb 36.5093 -44.9884
lclavicle -2.45654e-014 -2.48729e-014
lhumerus -42.7654 25.0722 76.4602
lradius 29.2954
lwrist -21.5859
lhand -4.9363 10.6639
lfingers 7.12502
lthumb 20.8546 39.563
rfemur 10.2787 -0.57179 28.6953
rtibia 10.776
rfoot -13.1076 3.25045
rtoes -10.5248
lfemur -22.5558 -2.56317 -15.8187
ltibia 22.6367
lfoot -8.70565 10.5901
ltoes -16.523
498
root 40.0891 17.6142 11.385 -36.7465 82.325 -36.0215
lowerback -1.91471 -0.384072 8.84218
upperback -0.257961 -0.681105 0.145315
thorax 0.706517 -0.311502 -4.82713
lowerneck -3.30149 5.96228 -0.495615
upperneck 7.10846 8.1697 -1.39315
head 2.87583 4.02078 -0.0736132
rclavicle -1.55301e-018 -1.30701e-014
rhumerus -25.8887 2.35155 -94.2188
rradius 38.2786
rwrist 20.9805
rhand 11.3707 -18.8868
rfingers 7.12502
rthumb 36.4253 -45.0977
lclavicle -1.55301e-018 -1.30701e-014
lhumerus -42.7081 25.1407 76.3677
lradius 29.4899
lwrist -21.6432
lhand -4.42797 10.8201
lfingers 7.12502
lthumb 21.3429 39.6648
rfemur 10.8764 -0.796122 28.4712
rtibia 10.729
rfoot -12.8302 3.57131
rtoes -11.218
lfemur -22.2831 -3.18415 -15.8972
ltibia 22.9887
lfoot -7.85202 11.9723
ltoes -13.7766
499
root 40.2382 17.6327 11.3472 -32.4644 82.7766 -31.9041
lowerback -2.1791 -0.425093 8.55874
upperback -0.398868 -0.750168 -0.152106
thorax 0.698141 -0.352929 -4.98205
lowerneck -3.23017 5.96619 -0.491521
upperneck 7.15885 8.17411 -1.36094
head 2.87828 4.02465 -0.0654726
rclavicle 1.39336e-014 -2.98177e-016
rhumerus -26.1965 1.97506 -94.1939
rradius 37.7177
rwrist 21.5042
rhand 11.2006 -18.7209
rfingers 7.12502
rthumb 36.2641 -44.9721
lclavicle 1.39336e-014 -2.98177e-016
lhumerus -42.553 24.7411 76.7459
lradius 29.5231
lwrist -20.9721
lhand -4.96281 10.9949
lfingers 7.12502
lthumb 20.8291 39.8969
rfemur 11.0683 -1.38884 27.3161
rtibia 10.9298
rfoot -12.4922 4.19206
rtoes -11.4092
lfemur -22.173 -3.56262 -16.9213
ltibia 23.2999
lfoot -7.318 12.7201
ltoes -9.65115
500
root 40.3837 17.64 11.3201 -29.2598 83.1826 -28.7841
lowerback -2.33622 -0.436979 8.40682
upperback -0.501212 -0.772861 -0.417443
thorax 0.675064 -0.369777 -5.17566
lowerneck -3.24083 5.89042 -0.62298
upperneck 7.23831 8.071 -1.20076
head 2.89288 3.97477 0.00507064
rclavicle 2.09531e-014 -1.04859e-014
rhumerus -26.4985 1.2345 -94.0394
rradius 37.1372
rwrist 21.9214
rhand 11.1041 -18.7187
rfingers 7.12502
rthumb 36.1728 -44.9926
lclavicle 2.09531e-014 -1.04859e-014
lhumerus -42.4124 25.0924 76.6056
lradius 29.2825
lwrist -21.5346
lhand -5.09768 10.7083
lfingers 7.12502
lthumb 20.6996 39.6244
rfemur 11.0637 -1.94396 26.435
rtibia 11.6682
rfoot -12.289 4.57081
rtoes -12.543
lfemur -21.9902 -4.11659 -17.665
ltibia 23.5886
lfoot -7.03773 12.4752
ltoes -5.27062
501
root 40.5313 17.6482 11.3078 -27.897 83.2894 -27.3466
lowerback -2.40863 -0.432616 8.42156
upperback -0.49905 -0.774278 -0.608424
thorax 0.714927 -0.369378 -5.38502
lowerneck -3.33506 5.84432 -0.680442
upperneck 7.33249 7.99784 -0.969575
head 2.92854 3.94297 0.0902752
rclavicle -4.69008e-015 1.39149e-015
rhumerus -26.7301 0.32723 -94.011
rradius 36.4918
rwrist 22.267
rhand 11.2035 -18.9338
rfingers 7.12502
rthumb 36.2669 -45.1843
lclavicle -4.69008e-015 1.39149e-015
lhumerus -42.1128 24.4503 77.0279
lradius 29.4697
lwrist -20.7877
lhand -5.51817 11.036
lfingers 7.12502
lthumb 20.2955 39.9956
rfemur 11.1734 -1.86202 26.1087
rtibia 12.5199
rfoot -11.9953 4.45175
rtoes -14.0915
lfemur -21.5446 -4.16411 -18.0628
ltibia 23.9826
lfoot -8.2968 12.1602
ltoes -8.14114
502
root 40.6813 17.6537 11.3462 -28.4149 83.0348 -27.7227
lowerback -2.39098 -0.380464 7.95603
upperback -0.570439 -0.689004 -0.509177
thorax 0.651246 -0.332124 -5.01517
lowerneck -3.18679 5.78302 -0.56509
upperneck 7.41679 7.90729 -0.917868
head 2.93203 3.90381 0.080919
rclavicle 5.55355e-015 -5.36719e-015
rhumerus -27.1856 -0.620343 -93.879
rradius 35.5618
rwrist 23.2185
rhand 11.068 -18.5679
rfingers 7.12502
rthumb 36.1386 -44.8503
lclavicle 5.55355e-015 -5.36719e-015
lhumerus -42.0739 24.6378 76.6795
lradius 29.1474
lwrist -21.9161
lhand -5.24924 10.5513
lfingers 7.12502
lthumb 20.5539 39.4832
rfemur 11.3131 -0.103024 26.8719
rtibia 13.4417
rfoot -11.5604 2.61622
rtoes -16.4822
lfemur -21.0328 -4.14394 -17.7895
ltibia 24.464
lfoot -9.31934 12.271
ltoes -9.71951
503
root 40.8268 17.6575 11.3743 -32.7254 82.5282 -31.7355
lowerback -2.30874 -0.406489 8.11601
upperback -0.448762 -0.725718 -0.189212
thorax 0.728132 -0.342325 -4.77206
lowerneck -3.24434 5.77847 -0.637994
upperneck 7.4819 7.91259 -0.969283
head 2.96418 3.90211 0.0804033
rclavicle 1.05356e-014 -2.00773e-014
rhumerus -27.451 -1.52644 -93.627
rradius 34.5887
rwrist 24.6113
rhand 10.8799 -18.2389
rfingers 7.12502
rthumb 35.9604 -44.5651
lclavicle 1.05356e-014 -2.00773e-014
lhumerus -41.8723 25.3427 76.4413
lradius 28.9085
lwrist -22.9756
lhand -5.31864 10.319
lfingers 7.12502
lthumb 20.4872 39.258
rfemur 11.4911 0.87074 27.948
rtibia 14.5445
rfoot -10.9741 1.58528
rtoes -18.3267
lfemur -20.4571 -3.6198 -17.0496
ltibia 24.9501
lfoot -9.5065 12.0636
ltoes -8.48784
504
root 40.9634 17.6686 11.3774 -33.3461 82.3852 -32.265
lowerback -2.18597 -0.402516 8.1673
upperback -0.535035 -0.705792 -0.212064
thorax 0.571389 -0.341228 -4.82228
lowerneck -3.21661 5.72083 -0.569683
upperneck 7.6465 7.83229 -0.907816
head 3.01511 3.86576 0.0883063
rclavicle -1.77353e-014 0
rhumerus -27.8881 -2.51724 -93.4781
rradius 33.7712
rwrist 25.0539
rhand 10.9222 -18.5735
rfingers 7.12502
rthumb 36.0005 -44.8899
lclavicle -1.77353e-014 0
lhumerus -42.1638 27.6657 74.7693
lradius 28.293
lwrist -26.2808
lhand -4.46907 9.41353
lfingers 7.12502
lthumb 21.3035 38.2626
rfemur 11.2412 1.41371 28.1667
rtibia 15.9009
rfoot -10.228 1.20127
rtoes -19.4206
lfemur -20.0332 -3.21714 -17.0037
ltibia 25.3548
lfoot -10.2694 11.7748
ltoes -9.15421
